<?xml version="1.0" standalone="no"?>
<!DOCTYPE svg PUBLIC "-//W3C//DTD SVG 20010904//EN"
 "http://www.w3.org/TR/2001/REC-SVG-20010904/DTD/svg10.dtd">
<svg version="1.0" xmlns="http://www.w3.org/2000/svg"
 width="151.000000pt" height="151.000000pt" viewBox="0 0 151.000000 151.000000"
 preserveAspectRatio="xMidYMid meet">
<metadata>
Created by potrace 1.11, written by Peter Selinger 2001-2013
</metadata>
<g transform="translate(0.000000,151.000000) scale(0.100000,-0.100000)"
fill="#000000" stroke="none">
<path d="M400 1105 l-344 -346 57 -57 57 -57 347 347 348 348 -55 55 c-30 30
-57 55 -60 55 -3 0 -161 -155 -350 -345z"/>
<path d="M830 1255 l-54 -55 277 -277 277 -278 57 58 58 57 -275 275 c-151
151 -277 275 -280 275 -3 0 -30 -25 -60 -55z"/>
<path d="M540 965 l-205 -205 38 -37 37 -38 207 207 207 207 -34 36 c-19 19
-36 35 -40 35 -3 0 -97 -92 -210 -205z"/>
<path d="M820 1035 l-34 -35 154 -155 155 -155 35 35 35 35 -155 155 -156 156
-34 -36z"/>
<path d="M650 865 l-105 -105 23 -22 22 -23 105 106 106 105 -24 22 -23 22
-104 -105z"/>
<path d="M805 870 c-18 -20 -18 -22 50 -90 l69 -70 23 22 24 22 -68 68 c-37
37 -70 68 -74 68 -3 0 -14 -9 -24 -20z"/>
<path d="M730 795 l-24 -26 32 -32 32 -32 25 26 25 25 -33 32 -33 32 -24 -25z"/>
<path d="M652 717 c-28 -30 -28 -38 6 -70 l28 -27 27 28 27 28 -33 32 -33 32
-22 -23z"/>
<path d="M477 692 l-37 -38 108 -107 108 -107 39 40 39 40 -104 105 c-58 58
-107 105 -110 105 -3 0 -23 -17 -43 -38z"/>
<path d="M251 668 l-50 -53 82 -83 c45 -46 137 -141 204 -211 l122 -126 58 58
58 57 -205 205 c-113 113 -208 205 -211 205 -4 0 -30 -24 -58 -52z"/>
<path d="M780 655 l-64 -65 22 -22 22 -23 67 67 c66 66 67 67 48 88 -10 11
-21 20 -24 20 -4 0 -36 -29 -71 -65z"/>
<path d="M841 566 l-154 -154 28 -36 c15 -20 31 -35 34 -34 3 2 75 74 160 161
l155 157 -29 30 c-16 17 -31 30 -34 30 -4 0 -75 -69 -160 -154z"/>
<path d="M910 445 l-275 -275 58 -57 58 -58 201 205 c110 113 234 240 276 282
l76 78 -49 50 c-27 27 -54 50 -60 50 -5 0 -134 -124 -285 -275z"/>
</g>
</svg>
