<svg version="1" xmlns="http://www.w3.org/2000/svg" width="682.667" height="682.667" viewBox="0 0 512.000000 512.000000"><path d="M127.7 128.3L-.1 256.3l20.8 20.9L41.5 298l128.2-128.2L298 41.5l-20.7-20.7C265.8 9.3 256.3.1 256 .1c-.3.1-58 57.8-128.3 128.2zM286.3 71.4C275.1 82.6 266 92.1 266 92.6 266 93.7 469.2 297 470.3 297c.5 0 10.1-9.3 21.5-20.6l20.6-20.5-102.5-102.5C353.6 97.1 307.3 51 307 51.1c-.3 0-9.6 9.2-20.7 20.3zM179.6 178.4c-41.8 41.9-76.1 76.6-76.3 77.1-.2.6 6.1 7.4 13.9 15.2l14.3 14.1 76.7-76.7 76.7-76.8-14.7-14.5-14.7-14.4-75.9 76zM280.5 153l-13 13 58 58 58 58 13-13 13-13-58-58-58-58-13 13zM218.6 215.1l-38.8 39 9.2 9.1 9.2 9.1 39.2-39.2 39.3-39.3-9-8.9c-5-4.9-9.3-8.9-9.6-8.9-.3.1-18.1 17.6-39.5 39.1zM276.7 212.3l-8.8 9.1 26.3 26.3 26.3 26.3 8.7-8.7c4.9-4.8 8.8-9.2 8.8-9.7 0-.8-51.5-52.7-52.1-52.5-.2.1-4.4 4.2-9.2 9.2zM248.1 241.1l-10.2 10.3 12.3 12.3c6.8 6.8 12.6 12.3 13 12.3.9 0 19.8-19 19.8-19.9 0-.3-5.6-6.2-12.4-13l-12.3-12.3-10.2 10.3zM218.4 270.8l-10.5 10.6 12.3 12.3c6.7 6.8 12.6 12.3 13 12.3.7 0 16.9-16 19.8-19.5.8-1-1.8-4.2-11.5-13.8L229 260.3l-10.6 10.5zM155.6 278.9c-13.5 13.6-14.8 15.1-13.5 16.7.8 1 18.7 19 39.8 40.1l38.4 38.4 15.3-15.2 15.3-15.3-39.8-39.8c-21.9-21.9-40-39.8-40.2-39.8-.2 0-7.1 6.7-15.3 14.9zM288.6 324.1l-59 59 13.2 13.2 13.2 13.2 59-59 59.1-59.1-13.2-13.2c-7.2-7.3-13.2-13.2-13.3-13.2 0 .1-26.6 26.6-59 59.1zM71.1 286.6l-20.5 20.5 77 77 76.9 76.9 20.9-20.9 21-21-76.6-76.5c-42.1-42.1-76.9-76.6-77.4-76.5-.5 0-10.1 9.2-21.3 20.5zM267.1 291.1l-25.2 25.1 9.1 9 9 9 25.5-25.4 25.4-25.4-8.7-8.7c-4.8-4.8-9-8.7-9.4-8.7-.3 0-11.9 11.3-25.7 25.1zM317.1 368.2L214.9 470.4l20.8 20.8 20.8 20.8 102.2-102.2L461 307.5l-20.7-20.7c-11.5-11.5-20.8-20.8-20.9-20.8-.1 0-46.1 46-102.3 102.2z"/></svg>